<?xml version="1.0" encoding="utf-8"?>
<!-- Generator: Adobe Illustrator 13.0.0, SVG Export Plug-In . SVG Version: 6.00 Build 14948)  -->
<!DOCTYPE svg PUBLIC "-//W3C//DTD SVG 1.1//EN" "http://www.w3.org/Graphics/SVG/1.1/DTD/svg11.dtd">
<svg version="1.1" id="レイヤー_1" xmlns="http://www.w3.org/2000/svg" xmlns:xlink="http://www.w3.org/1999/xlink" x="0px"
	 y="0px" width="96px" height="96px" viewBox="0 0 96 96" enable-background="new 0 0 96 96" xml:space="preserve">
<linearGradient id="SVGID_1_" gradientUnits="userSpaceOnUse" x1="28.8433" y1="63.1064" x2="89.569" y2="2.3808" gradientTransform="matrix(1 0 0 -1 8.3999 70.1602)">
	<stop  offset="0" style="stop-color:#F9A03C"/>
	<stop  offset="1" style="stop-color:#F7974E"/>
</linearGradient>
<path fill="url(#SVGID_1_)" d="M95.82,65.857c0.043-0.418,0.074-0.84,0.098-1.265c0.029-0.502-30.211-29.194-30.211-29.194h-0.723
	C64.984,35.399,95.635,67.73,95.82,65.857z"/>
<linearGradient id="SVGID_2_" gradientUnits="userSpaceOnUse" x1="-16.438" y1="52.9443" x2="37.3242" y2="-0.8179" gradientTransform="matrix(1 0 0 -1 8.3999 70.1602)">
	<stop  offset="0" style="stop-color:#F9A03C"/>
	<stop  offset="1" style="stop-color:#F7974E"/>
</linearGradient>
<path fill="url(#SVGID_2_)" d="M31.302,55.904c-0.04,0.088-0.08,0.176-0.121,0.264c-0.043,0.092-0.087,0.184-0.131,0.275
	c-0.964,2.01,13.495,16.145,14.658,14.428c0.053-0.076,0.106-0.156,0.159-0.232c0.059-0.09,0.117-0.176,0.175-0.266
	C46.972,68.961,31.715,54.986,31.302,55.904z"/>
<linearGradient id="SVGID_3_" gradientUnits="userSpaceOnUse" x1="3.5347" y1="33.6079" x2="57.9909" y2="-20.8482" gradientTransform="matrix(1 0 0 -1 8.3999 70.1602)">
	<stop  offset="0" style="stop-color:#F9A03C"/>
	<stop  offset="1" style="stop-color:#F7974E"/>
</linearGradient>
<path fill="url(#SVGID_3_)" d="M51.734,75.781c-0.041,0.09-0.332,0.582-0.598,0.842c-0.046,0.09,14.114,14.133,14.114,14.133h1.274
	C66.527,90.756,53.234,76.375,51.734,75.781z"/>
<linearGradient id="SVGID_4_" gradientUnits="userSpaceOnUse" x1="-6.7456" y1="71.8145" x2="78.5002" y2="-13.4313" gradientTransform="matrix(1 0 0 -1 8.3999 70.1602)">
	<stop  offset="0" style="stop-color:#F26D58"/>
	<stop  offset="1" style="stop-color:#F9A03C"/>
</linearGradient>
<path fill="url(#SVGID_4_)" d="M95.938,64.338c-0.662,14.68-12.807,26.418-27.645,26.418h-2.006L51.469,76.158
	c1.219-1.719,2.352-3.5,3.361-5.357h13.463c4.258,0,7.723-3.463,7.723-7.723c0-4.258-3.465-7.723-7.723-7.723h-7.967
	c0.607-3.209,0.939-6.519,0.939-9.903c0-3.437-0.338-6.793-0.968-10.053h4.949l30.604,30.156
	C95.887,65.15,95.916,64.746,95.938,64.338z M8.05,0H0v19.955h8.05c14.06,0,25.5,11.437,25.5,25.497
	c0,3.825-0.853,7.456-2.369,10.716l14.686,14.471c4.822-7.215,7.641-15.877,7.641-25.187C53.508,20.39,33.115,0,8.05,0z"/>
<linearGradient id="SVGID_5_" gradientUnits="userSpaceOnUse" x1="36.8442" y1="79.71" x2="99.7" y2="16.8543" gradientTransform="matrix(1 0 0 -1 8.3999 70.1602)">
	<stop  offset="0" style="stop-color:#B84E51"/>
	<stop  offset="1" style="stop-color:#F68E48"/>
</linearGradient>
<path fill="url(#SVGID_5_)" d="M68.293,0H35.695c7.962,4.861,14.555,11.754,19.047,19.955h13.551c4.258,0,7.723,3.463,7.723,7.723
	c0,4.259-3.465,7.722-7.723,7.722h-3.045l30.604,30.155c0.072-0.818,0.117-1.641,0.117-2.477c0-6.727-2.414-12.898-6.422-17.701
	c4.008-4.801,6.422-10.973,6.422-17.699C95.969,12.417,83.555,0,68.293,0z"/>
<linearGradient id="SVGID_6_" gradientUnits="userSpaceOnUse" x1="-1.7671" y1="5.8413" x2="41.2788" y2="-37.2046" gradientTransform="matrix(1 0 0 -1 8.3999 70.1602)">
	<stop  offset="0" style="stop-color:#F9A03C"/>
	<stop  offset="1" style="stop-color:#F7974E"/>
</linearGradient>
<path fill="url(#SVGID_6_)" d="M66.287,90.756H35.928C42.039,86.982,47.322,82,51.469,76.158L66.287,90.756z M45.867,70.639
	L31.182,56.168C27.125,64.887,18.284,70.951,8.05,70.951H0v19.953h8.05C23.804,90.904,37.709,82.846,45.867,70.639z"/>
</svg>
